<svg xmlns="http://www.w3.org/2000/svg" viewBox="0 0 1400 900" role="img" aria-labelledby="title desc">
  <title id="title">Raw District location concept artwork</title>
  <desc id="desc">Abstract district connectivity artwork inspired by Sheikh Zayed Road and nearby destinations.</desc>
  <defs>
    <linearGradient id="bg" x1="0%" y1="0%" x2="100%" y2="100%">
      <stop offset="0%" stop-color="#182431"/>
      <stop offset="100%" stop-color="#5f4529"/>
    </linearGradient>
  </defs>
  <rect width="1400" height="900" fill="url(#bg)"/>
  <rect x="150" y="150" width="1100" height="600" rx="34" fill="#f8f0e2" opacity="0.14"/>
  <path d="M210 680C310 612 406 548 536 468C662 392 790 322 932 252C1014 212 1090 184 1168 162" stroke="#f3d4a1" stroke-opacity="0.54" stroke-width="18" stroke-linecap="round"/>
  <path d="M226 238C340 286 464 328 598 362C752 402 900 424 1044 438C1122 446 1188 452 1240 460" stroke="#79ced8" stroke-opacity="0.34" stroke-width="12" stroke-linecap="round"/>
  <path d="M264 306H622V412H264Z" fill="#f3d4a1" opacity="0.24"/>
  <path d="M698 248H1132V378H698Z" fill="#f7efe3" opacity="0.18"/>
  <path d="M244 470H544V666H244Z" fill="#f7efe3" opacity="0.16"/>
  <path d="M598 448H1134V658H598Z" fill="#c58d52" opacity="0.2"/>
  <circle cx="444" cy="522" r="20" fill="#f3d4a1"/>
  <circle cx="762" cy="344" r="20" fill="#f3d4a1"/>
  <circle cx="1010" cy="228" r="20" fill="#f3d4a1"/>
  <circle cx="1132" cy="446" r="20" fill="#79ced8"/>
</svg>
