<svg xmlns="http://www.w3.org/2000/svg" viewBox="0 0 1600 1100" role="img" aria-labelledby="title desc">
  <title id="title">Raw District hero concept artwork</title>
  <desc id="desc">Abstract mixed-use skyline illustration inspired by a metro-connected Sheikh Zayed Road setting.</desc>
  <defs>
    <linearGradient id="sky" x1="0%" y1="0%" x2="100%" y2="100%">
      <stop offset="0%" stop-color="#101822"/>
      <stop offset="46%" stop-color="#1b2835"/>
      <stop offset="100%" stop-color="#705131"/>
    </linearGradient>
    <linearGradient id="sun" x1="0%" y1="0%" x2="0%" y2="100%">
      <stop offset="0%" stop-color="#f5d5a0" stop-opacity="0.95"/>
      <stop offset="100%" stop-color="#f5d5a0" stop-opacity="0"/>
    </linearGradient>
    <linearGradient id="glass" x1="0%" y1="0%" x2="0%" y2="100%">
      <stop offset="0%" stop-color="#9ed5d5" stop-opacity="0.82"/>
      <stop offset="100%" stop-color="#9ed5d5" stop-opacity="0.08"/>
    </linearGradient>
  </defs>
  <rect width="1600" height="1100" fill="url(#sky)"/>
  <circle cx="1210" cy="170" r="250" fill="#d3a86d" opacity="0.2"/>
  <circle cx="280" cy="160" r="320" fill="#e7cba3" opacity="0.08"/>
  <path d="M0 770C160 722 294 704 436 744C578 784 676 862 836 862C980 862 1080 760 1222 740C1342 724 1458 746 1600 718V1100H0Z" fill="#f6ecdd" opacity="0.09"/>
  <rect x="0" y="804" width="1600" height="296" fill="#0b1218" opacity="0.28"/>
  <g opacity="0.92">
    <rect x="698" y="336" width="122" height="438" rx="12" fill="#203042"/>
    <rect x="842" y="284" width="144" height="490" rx="12" fill="#253749"/>
    <rect x="1004" y="224" width="184" height="550" rx="14" fill="#162534"/>
    <rect x="1218" y="176" width="218" height="598" rx="14" fill="#13212d"/>
    <rect x="534" y="468" width="136" height="306" rx="14" fill="#2a3948"/>
  </g>
  <g opacity="0.56">
    <rect x="726" y="364" width="12" height="376" fill="url(#sun)"/>
    <rect x="764" y="364" width="12" height="376" fill="url(#sun)"/>
    <rect x="878" y="312" width="14" height="418" fill="url(#glass)"/>
    <rect x="928" y="312" width="14" height="418" fill="url(#glass)"/>
    <rect x="1050" y="252" width="16" height="470" fill="url(#sun)"/>
    <rect x="1110" y="252" width="16" height="470" fill="url(#sun)"/>
    <rect x="1262" y="208" width="18" height="510" fill="url(#sun)"/>
    <rect x="1334" y="208" width="18" height="510" fill="url(#sun)"/>
  </g>
  <path d="M86 692H1514" stroke="#f0d2a2" stroke-opacity="0.16" stroke-width="4"/>
  <path d="M118 734C278 726 418 718 578 718C742 718 904 724 1066 734C1210 742 1352 752 1482 756" stroke="#6fd0d6" stroke-opacity="0.42" stroke-width="10" stroke-linecap="round"/>
  <g opacity="0.84">
    <circle cx="360" cy="720" r="16" fill="#f3d7ae"/>
    <circle cx="796" cy="724" r="16" fill="#f3d7ae"/>
    <circle cx="1186" cy="742" r="16" fill="#f3d7ae"/>
  </g>
</svg>
