<svg xmlns="http://www.w3.org/2000/svg" viewBox="0 0 1400 900" role="img" aria-labelledby="title desc">
  <title id="title">Raw District amenities concept artwork</title>
  <desc id="desc">Abstract social and wellness artwork inspired by the project's lifestyle amenities.</desc>
  <defs>
    <linearGradient id="bg" x1="0%" y1="0%" x2="100%" y2="100%">
      <stop offset="0%" stop-color="#20303d"/>
      <stop offset="100%" stop-color="#8d6431"/>
    </linearGradient>
  </defs>
  <rect width="1400" height="900" fill="url(#bg)"/>
  <rect x="166" y="470" width="1068" height="184" rx="42" fill="#6dc0d4" opacity="0.34"/>
  <rect x="246" y="366" width="918" height="126" rx="36" fill="#f7efe3" opacity="0.16"/>
  <circle cx="278" cy="296" r="82" fill="#f2c785" opacity="0.24"/>
  <circle cx="438" cy="258" r="58" fill="#f7efe3" opacity="0.18"/>
  <circle cx="574" cy="286" r="62" fill="#f2c785" opacity="0.16"/>
  <rect x="920" y="290" width="204" height="122" rx="34" fill="#ffffff" opacity="0.12"/>
  <rect x="964" y="330" width="116" height="44" rx="22" fill="#f3d4a1" opacity="0.42"/>
  <path d="M0 730C130 688 244 680 372 720C492 757 594 818 740 818C890 818 992 744 1128 730C1236 718 1322 734 1400 710V900H0Z" fill="#f7efe3" opacity="0.14"/>
  <path d="M210 566C300 540 406 528 520 534C650 540 756 578 860 590C972 602 1086 588 1184 558" stroke="#f7efe3" stroke-opacity="0.3" stroke-width="6" stroke-linecap="round"/>
</svg>
